<?xml version="1.0" standalone="no"?>
<!DOCTYPE svg PUBLIC "-//W3C//DTD SVG 20010904//EN"
 "http://www.w3.org/TR/2001/REC-SVG-20010904/DTD/svg10.dtd">
<svg version="1.0" xmlns="http://www.w3.org/2000/svg"
 width="178.000000pt" height="178.000000pt" viewBox="0 0 178.000000 178.000000"
 preserveAspectRatio="xMidYMid meet">
<metadata>
Created by potrace 1.14, written by Peter Selinger 2001-2017
</metadata>
<g transform="translate(0.000000,178.000000) scale(0.100000,-0.100000)"
fill="#000000" stroke="none">
<path d="M828 1765 c-2 -2 -25 -5 -53 -8 -99 -11 -235 -53 -305 -95 -99 -60
-141 -93 -228 -182 -97 -100 -178 -246 -213 -390 -21 -84 -18 -337 5 -425 83
-319 357 -579 676 -644 125 -25 301 -18 420 16 317 90 571 372 624 693 13 79
14 234 2 308 -46 282 -260 549 -531 661 -41 17 -98 36 -127 42 -29 6 -63 12
-75 15 -24 5 -191 12 -195 9z"/>
</g>
</svg>
